<?xml version="1.0" encoding="UTF-8"?>
<svg id="Layer_1" data-name="Layer 1" xmlns="http://www.w3.org/2000/svg" xmlns:xlink="http://www.w3.org/1999/xlink" viewBox="0 0 93.7 93.7">
  <defs>
    <style>
      .cls-1 {
        fill: url(#linear-gradient);
      }
    </style>
    <linearGradient id="linear-gradient" x1="2.74" y1="78.54" x2="94.07" y2="12.92" gradientUnits="userSpaceOnUse">
      <stop offset="0" stop-color="#282560"/>
      <stop offset=".34" stop-color="#90298d"/>
      <stop offset=".74" stop-color="#eb2d7c"/>
      <stop offset="1" stop-color="#f067a6"/>
    </linearGradient>
  </defs>
  <path class="cls-1" d="M46.85,0C21.02,0,0,21.02,0,46.85s21.02,46.85,46.85,46.85,46.85-21.02,46.85-46.85S72.68,0,46.85,0ZM46.85,82.11c-19.44,0-35.26-15.82-35.26-35.26,0-9.83,4.05-18.73,10.56-25.13-.09-.42-.14-.85-.14-1.3v-7.84h16.61c2.64-.63,5.39-.98,8.23-.98,19.44,0,35.26,15.82,35.26,35.26s-15.82,35.26-35.26,35.26ZM67.31,52.48c0-3.13-.36-5.97-1.08-8.54-.72-2.56-1.72-4.67-3-6.31-1.33-1.74-2.87-3.02-4.61-3.84-1.69-.87-3.67-1.31-5.92-1.31-2.67,0-4.97.49-6.92,1.46-2.05,1.03-3.82,2.36-5.31,4l.47-22.07h-15.61v4.54c0,1.28.64,2.08,1.92,2.38l.54.08c.15,0,.33.03.54.08.2.05.46.1.77.15l2.38.38-.47,47.45c7.13,1.44,13.56,2.15,19.3,2.15,2.66,0,5-.51,7-1.54,2.1-1.03,3.9-2.46,5.38-4.31,1.54-1.9,2.67-4.08,3.38-6.54.82-2.72,1.23-5.46,1.23-8.23ZM56.85,58.48c-.41,1.59-1.05,2.97-1.92,4.15-.77,1.08-1.74,1.9-2.92,2.46-1.08.51-2.36.77-3.84.77-2.61,0-5.18-.23-7.69-.69v-20.53c1.18-1.49,2.49-2.66,3.92-3.54,1.33-.82,3.02-1.23,5.08-1.23,1.23,0,2.33.23,3.31.69,1.03.46,1.87,1.18,2.54,2.15.67.97,1.2,2.28,1.61,3.92.36,1.49.54,3.44.54,5.85s-.2,4.51-.61,6Z"/>
</svg>