<?xml version="1.0" encoding="UTF-8"?>
<svg id="Layer_1" data-name="Layer 1" xmlns="http://www.w3.org/2000/svg" xmlns:xlink="http://www.w3.org/1999/xlink" viewBox="0 0 150.7 57.28">
  <defs>
    <style>
      .cls-1 {
        fill: url(#linear-gradient);
      }
    </style>
    <linearGradient id="linear-gradient" x1="37.92" y1="61.59" x2="105.76" y2="-7.25" gradientUnits="userSpaceOnUse">
      <stop offset="0" stop-color="#282560"/>
      <stop offset=".34" stop-color="#90298d"/>
      <stop offset=".74" stop-color="#eb2d7c"/>
      <stop offset="1" stop-color="#f067a6"/>
    </linearGradient>
  </defs>
  <path class="cls-1" d="M42.04,36.65c0-3.13-.36-5.98-1.08-8.55-.72-2.57-1.72-4.67-3-6.31-1.33-1.74-2.88-3.03-4.62-3.85-1.69-.87-3.67-1.31-5.93-1.31-2.67,0-4.98.49-6.93,1.46-2.05,1.03-3.83,2.36-5.31,4l.47-22.09H0v4.54c0,1.28.64,2.08,1.92,2.39l.54.08c.15,0,.33.03.54.08.2.05.46.1.77.15l2.39.38-.47,47.5c7.13,1.44,13.58,2.16,19.33,2.16,2.67,0,5-.51,7.01-1.54,2.1-1.03,3.9-2.46,5.39-4.31,1.54-1.9,2.67-4.08,3.39-6.54.82-2.72,1.23-5.47,1.23-8.24ZM31.56,42.65c-.41,1.59-1.05,2.98-1.93,4.16-.77,1.08-1.75,1.9-2.93,2.46-1.08.51-2.36.77-3.85.77-2.62,0-5.19-.23-7.7-.69v-20.56c1.18-1.49,2.49-2.67,3.93-3.54,1.33-.82,3.03-1.23,5.08-1.23,1.23,0,2.34.23,3.31.69,1.03.46,1.87,1.18,2.54,2.16.67.98,1.21,2.29,1.62,3.93.36,1.49.54,3.44.54,5.85s-.21,4.52-.62,6.01ZM150.7,18.33l-1.23,7.16c-.05.46-.21.77-.46.92-.31.21-.67.31-1.08.31-.36,0-.87-.08-1.54-.23-.92-.21-1.82-.31-2.69-.31-2,0-3.7.54-5.08,1.62-1.28.98-2.46,2.59-3.54,4.85v16.94l3.85.69c1.28.31,1.92,1.1,1.92,2.39v4.54h-30.91c-.67,0-1.31-.13-1.93-.38-.51-.21-.98-.64-1.39-1.31l-10.01-15.01c-.36-.62-.75-1-1.16-1.16-.36-.15-.95-.23-1.77-.23h-2.16v10.47l2.31.38,1.16.23.46.08c1.28.31,1.92,1.1,1.92,2.39v4.54h-25.42c-.67,0-1.31-.13-1.93-.38-.51-.21-.98-.64-1.39-1.31l-10.01-15.01c-.36-.62-.75-1-1.16-1.16-.36-.15-.95-.23-1.77-.23h-2.16v10.47l2.31.38,1.16.23.46.08c1.28.31,1.92,1.1,1.92,2.39v4.54h-21.17v-4.54c0-1.28.64-2.08,1.92-2.39l.46-.08c.15,0,.32-.03.5-.08.18-.05.4-.1.65-.15l2.31-.38V7.62l-2.31-.38c-.26-.05-.48-.1-.65-.15-.18-.05-.35-.08-.5-.08l-.46-.08c-1.28-.31-1.92-1.1-1.92-2.39V0h15.32v32.72h1.77c.67,0,1.18-.08,1.54-.23.31-.1.69-.44,1.16-1l5.47-6.7-.69-.15c-1.28-.31-1.93-1.1-1.93-2.39v-4.54h9.47v.08c.2-.05.46-.08.77-.08h8.47v4.54c0,1.28-.64,2.08-1.92,2.39l-.62.08-1.54.23-2.08.31-5.85,7.08-1.39,1.54c-.51.51-1,.9-1.46,1.16.62.46,1.08.9,1.39,1.31.15.21.33.44.54.69.2.26.44.59.69,1l7.93,11.55,5.07.75s1.72,0,1.72,2.33V7.62l-2.31-.38c-.26-.05-.48-.1-.65-.15-.18-.05-.35-.08-.5-.08l-.46-.08c-1.28-.31-1.92-1.1-1.92-2.39V0h15.32v32.72h1.77c.67,0,1.18-.08,1.54-.23.31-.1.69-.44,1.16-1l5.47-6.7-.69-.15c-1.28-.31-1.93-1.1-1.93-2.39v-4.54h9.47v.08c.2-.05.46-.08.77-.08h8.47v4.54c0,1.28-.64,2.08-1.92,2.39l-.62.08-1.54.23-2.08.31-5.85,7.08-1.39,1.54c-.51.51-1,.9-1.46,1.16.62.46,1.08.9,1.39,1.31.15.21.33.44.54.69.2.26.44.59.69,1l7.93,11.55c1.13.21,1.95.33,2.46.38,1.13.1,1.67.15,1.62.15l.77.15c.94.23,1.54.72,1.79,1.47.25-.75.84-1.25,1.79-1.47l3.85-.69v-24.25l-3.85-.69c-1.28-.31-1.92-1.1-1.92-2.39v-4.54h11.4c.97,0,1.64.18,2,.54.36.36.62.98.77,1.85l.62,4.77c1.39-2.51,3.03-4.44,4.93-5.78,1.95-1.39,4.08-2.08,6.39-2.08,2,0,3.62.44,4.85,1.31Z"/>
</svg>